<?xml version="1.0" encoding="UTF-8" standalone="no"?>
<svg xmlns="http://www.w3.org/2000/svg" width="500" height="500" viewBox="0 0 500 500">
<circle cx="252.00" cy="250.00" r="2" fill="gold" />
<circle cx="252.76" cy="250.49" r="2" fill="purple" />
<circle cx="253.38" cy="251.23" r="2" fill="purple" />
<circle cx="253.81" cy="252.20" r="2" fill="purple" />
<circle cx="253.98" cy="253.34" r="2" fill="purple" />
<circle cx="253.86" cy="254.60" r="2" fill="gold" />
<circle cx="253.40" cy="255.89" r="2" fill="purple" />
<circle cx="252.60" cy="257.14" r="2" fill="purple" />
<circle cx="251.46" cy="258.27" r="2" fill="purple" />
<circle cx="250.00" cy="259.20" r="2" fill="purple" />
<circle cx="248.26" cy="259.85" r="2" fill="gold" />
<circle cx="246.31" cy="260.15" r="2" fill="purple" />
<circle cx="244.20" cy="260.05" r="2" fill="purple" />
<circle cx="242.03" cy="259.50" r="2" fill="purple" />
<circle cx="239.89" cy="258.48" r="2" fill="purple" />
<circle cx="237.88" cy="257.00" r="2" fill="gold" />
<circle cx="236.09" cy="255.06" r="2" fill="purple" />
<circle cx="234.64" cy="252.71" r="2" fill="purple" />
<circle cx="233.60" cy="250.00" r="2" fill="purple" />
<circle cx="233.06" cy="247.01" r="2" fill="purple" />
<circle cx="233.09" cy="243.84" r="2" fill="gold" />
<circle cx="233.72" cy="240.60" r="2" fill="purple" />
<circle cx="234.99" cy="237.40" r="2" fill="purple" />
<circle cx="236.89" cy="234.37" r="2" fill="purple" />
<circle cx="239.40" cy="231.64" r="2" fill="purple" />
<circle cx="242.48" cy="229.33" r="2" fill="gold" />
<circle cx="246.04" cy="227.55" r="2" fill="purple" />
<circle cx="250.00" cy="226.40" r="2" fill="purple" />
<circle cx="254.24" cy="225.97" r="2" fill="purple" />
<circle cx="258.62" cy="226.32" r="2" fill="purple" />
<circle cx="263.00" cy="227.48" r="2" fill="gold" />
<circle cx="267.23" cy="229.47" r="2" fill="purple" />
<circle cx="271.14" cy="232.26" r="2" fill="purple" />
<circle cx="274.60" cy="235.80" r="2" fill="purple" />
<circle cx="277.44" cy="240.01" r="2" fill="purple" />
<circle cx="279.54" cy="244.79" r="2" fill="gold" />
<circle cx="280.80" cy="250.00" r="2" fill="purple" />
<circle cx="281.12" cy="255.49" r="2" fill="purple" />
<circle cx="280.45" cy="261.08" r="2" fill="purple" />
<circle cx="278.75" cy="266.60" r="2" fill="purple" />
<circle cx="276.05" cy="271.85" r="2" fill="gold" />
<circle cx="272.37" cy="276.66" r="2" fill="purple" />
<circle cx="267.80" cy="280.83" r="2" fill="purple" />
<circle cx="262.45" cy="284.20" r="2" fill="purple" />
<circle cx="256.46" cy="286.63" r="2" fill="purple" />
<circle cx="250.00" cy="288.00" r="2" fill="gold" />
<circle cx="243.26" cy="288.21" r="2" fill="purple" />
<circle cx="236.46" cy="287.21" r="2" fill="purple" />
<circle cx="229.80" cy="284.99" r="2" fill="purple" />
<circle cx="223.52" cy="281.56" r="2" fill="purple" />
<circle cx="217.83" cy="277.00" r="2" fill="gold" />
<circle cx="212.93" cy="271.40" r="2" fill="purple" />
<circle cx="209.03" cy="264.91" r="2" fill="purple" />
<circle cx="206.27" cy="257.71" r="2" fill="purple" />
<circle cx="204.80" cy="250.00" r="2" fill="purple" />
<circle cx="204.70" cy="242.01" r="2" fill="gold" />
<circle cx="206.02" cy="233.99" r="2" fill="purple" />
<circle cx="208.78" cy="226.20" r="2" fill="purple" />
<circle cx="212.92" cy="218.89" r="2" fill="purple" />
<circle cx="218.37" cy="212.31" r="2" fill="purple" />
<circle cx="225.00" cy="206.70" r="2" fill="gold" />
<circle cx="232.63" cy="202.26" r="2" fill="purple" />
<circle cx="241.04" cy="199.18" r="2" fill="purple" />
<circle cx="250.00" cy="197.60" r="2" fill="purple" />
<circle cx="259.24" cy="197.61" r="2" fill="purple" />
<circle cx="268.47" cy="199.26" r="2" fill="gold" />
<circle cx="277.40" cy="202.54" r="2" fill="purple" />
<circle cx="285.74" cy="207.41" r="2" fill="purple" />
<circle cx="293.20" cy="213.75" r="2" fill="purple" />
<circle cx="299.54" cy="221.40" r="2" fill="purple" />
<circle cx="304.50" cy="230.16" r="2" fill="gold" />
<circle cx="307.91" cy="239.79" r="2" fill="purple" />
<circle cx="309.60" cy="250.00" r="2" fill="purple" />
<circle cx="309.48" cy="260.49" r="2" fill="purple" />
<circle cx="307.51" cy="270.93" r="2" fill="purple" />
<circle cx="303.69" cy="281.00" r="2" fill="gold" />
<circle cx="298.11" cy="290.37" r="2" fill="purple" />
<circle cx="290.88" cy="298.72" r="2" fill="purple" />
<circle cx="282.20" cy="305.77" r="2" fill="purple" />
<circle cx="272.30" cy="311.27" r="2" fill="purple" />
<circle cx="261.46" cy="315.00" r="2" fill="gold" />
<circle cx="250.00" cy="316.80" r="2" fill="purple" />
<circle cx="238.26" cy="316.57" r="2" fill="purple" />
<circle cx="226.61" cy="314.27" r="2" fill="purple" />
<circle cx="215.40" cy="309.93" r="2" fill="purple" />
<circle cx="205.00" cy="303.62" r="2" fill="gold" />
<circle cx="195.76" cy="295.51" r="2" fill="purple" />
<circle cx="187.99" cy="285.80" r="2" fill="purple" />
<circle cx="181.97" cy="274.76" r="2" fill="purple" />
<circle cx="177.91" cy="262.71" r="2" fill="purple" />
<circle cx="176.00" cy="250.00" r="2" fill="gold" />
<circle cx="176.34" cy="237.01" r="2" fill="purple" />
<circle cx="178.96" cy="224.14" r="2" fill="purple" />
<circle cx="183.84" cy="211.80" r="2" fill="purple" />
<circle cx="190.86" cy="200.38" r="2" fill="purple" />
<circle cx="199.86" cy="190.25" r="2" fill="gold" />
<circle cx="210.60" cy="181.76" r="2" fill="purple" />
<circle cx="222.78" cy="175.20" r="2" fill="purple" />
<circle cx="236.04" cy="170.82" r="2" fill="purple" />
<circle cx="250.00" cy="168.80" r="2" fill="purple" />
<circle cx="264.24" cy="169.25" r="2" fill="gold" />
<circle cx="278.32" cy="172.19" r="2" fill="purple" />
<circle cx="291.80" cy="177.60" r="2" fill="purple" />
<circle cx="304.25" cy="185.35" r="2" fill="purple" />
<circle cx="315.27" cy="195.23" r="2" fill="purple" />
<circle cx="324.48" cy="207.00" r="2" fill="gold" />
<circle cx="331.57" cy="220.31" r="2" fill="purple" />
<circle cx="336.27" cy="234.79" r="2" fill="purple" />
<circle cx="338.40" cy="250.00" r="2" fill="purple" />
<circle cx="337.84" cy="265.49" r="2" fill="purple" />
<circle cx="334.57" cy="280.78" r="2" fill="gold" />
<circle cx="328.64" cy="295.40" r="2" fill="purple" />
<circle cx="320.17" cy="308.88" r="2" fill="purple" />
<circle cx="309.39" cy="320.78" r="2" fill="purple" />
<circle cx="296.60" cy="330.71" r="2" fill="purple" />
<circle cx="282.15" cy="338.33" r="2" fill="gold" />
<circle cx="266.46" cy="343.36" r="2" fill="purple" />
<circle cx="250.00" cy="345.60" r="2" fill="purple" />
<circle cx="233.26" cy="344.94" r="2" fill="purple" />
<circle cx="216.76" cy="341.34" r="2" fill="purple" />
<circle cx="201.00" cy="334.87" r="2" fill="gold" />
<circle cx="186.49" cy="325.69" r="2" fill="purple" />
<circle cx="173.70" cy="314.02" r="2" fill="purple" />
<circle cx="163.05" cy="300.20" r="2" fill="purple" />
<circle cx="154.90" cy="284.61" r="2" fill="purple" />
<circle cx="149.55" cy="267.71" r="2" fill="gold" />
<circle cx="147.20" cy="250.00" r="2" fill="purple" />
<circle cx="147.97" cy="232.01" r="2" fill="purple" />
<circle cx="151.90" cy="214.29" r="2" fill="purple" />
<circle cx="158.89" cy="197.40" r="2" fill="purple" />
<circle cx="168.80" cy="181.86" r="2" fill="gold" />
<circle cx="181.35" cy="168.19" r="2" fill="purple" />
<circle cx="196.20" cy="156.82" r="2" fill="purple" />
<circle cx="212.93" cy="148.14" r="2" fill="purple" />
<circle cx="231.04" cy="142.46" r="2" fill="purple" />
<circle cx="250.00" cy="140.00" r="2" fill="gold" />
<circle cx="269.24" cy="140.88" r="2" fill="purple" />
<circle cx="288.17" cy="145.13" r="2" fill="purple" />
<circle cx="306.20" cy="152.66" r="2" fill="purple" />
<circle cx="322.76" cy="163.28" r="2" fill="purple" />
<circle cx="337.33" cy="176.72" r="2" fill="gold" />
<circle cx="349.42" cy="192.60" r="2" fill="purple" />
<circle cx="358.63" cy="210.46" r="2" fill="purple" />
<circle cx="364.63" cy="229.79" r="2" fill="purple" />
<circle cx="367.20" cy="250.00" r="2" fill="purple" />
<circle cx="366.21" cy="270.49" r="2" fill="gold" />
<circle cx="361.64" cy="290.63" r="2" fill="purple" />
<circle cx="353.58" cy="309.80" r="2" fill="purple" />
<circle cx="342.23" cy="327.39" r="2" fill="purple" />
<circle cx="327.91" cy="342.84" r="2" fill="purple" />
<circle cx="311.00" cy="355.66" r="2" fill="gold" />
<circle cx="292.00" cy="365.39" r="2" fill="purple" />
<circle cx="271.46" cy="371.72" r="2" fill="purple" />
<circle cx="250.00" cy="374.40" r="2" fill="purple" />
<circle cx="228.26" cy="373.30" r="2" fill="purple" />
<circle cx="206.91" cy="368.40" r="2" fill="gold" />
<circle cx="186.60" cy="359.81" r="2" fill="purple" />
<circle cx="167.98" cy="347.75" r="2" fill="purple" />
<circle cx="151.64" cy="332.53" r="2" fill="purple" />
<circle cx="138.11" cy="314.60" r="2" fill="purple" />
<circle cx="127.84" cy="294.46" r="2" fill="gold" />
<circle cx="121.19" cy="272.71" r="2" fill="purple" />
<circle cx="118.40" cy="250.00" r="2" fill="purple" />
<circle cx="119.61" cy="227.01" r="2" fill="purple" />
<circle cx="124.83" cy="204.44" r="2" fill="purple" />
<circle cx="133.95" cy="183.00" r="2" fill="gold" />
<circle cx="146.74" cy="163.35" r="2" fill="purple" />
<circle cx="162.84" cy="146.12" r="2" fill="purple" />
<circle cx="181.80" cy="131.87" r="2" fill="purple" />
<circle cx="203.07" cy="121.07" r="2" fill="purple" />
<circle cx="226.04" cy="114.10" r="2" fill="gold" />
<circle cx="250.00" cy="111.20" r="2" fill="purple" />
<circle cx="274.24" cy="112.52" r="2" fill="purple" />
<circle cx="298.02" cy="118.07" r="2" fill="purple" />
<circle cx="320.60" cy="127.72" r="2" fill="purple" />
<circle cx="341.28" cy="141.22" r="2" fill="gold" />
<circle cx="359.39" cy="158.21" r="2" fill="purple" />
<circle cx="374.36" cy="178.20" r="2" fill="purple" />
<circle cx="385.69" cy="200.61" r="2" fill="purple" />
<circle cx="392.99" cy="224.79" r="2" fill="purple" />
<circle cx="396.00" cy="250.00" r="2" fill="gold" />
<circle cx="394.57" cy="275.49" r="2" fill="purple" />
<circle cx="388.70" cy="300.48" r="2" fill="purple" />
<circle cx="378.52" cy="324.20" r="2" fill="purple" />
<circle cx="364.29" cy="345.90" r="2" fill="purple" />
<circle cx="346.42" cy="364.91" r="2" fill="gold" />
<circle cx="325.40" cy="380.60" r="2" fill="purple" />
<circle cx="301.85" cy="392.46" r="2" fill="purple" />
<circle cx="276.46" cy="400.08" r="2" fill="purple" />
<circle cx="250.00" cy="403.20" r="2" fill="purple" />
<circle cx="223.26" cy="401.66" r="2" fill="gold" />
<circle cx="197.06" cy="395.46" r="2" fill="purple" />
<circle cx="172.20" cy="384.75" r="2" fill="purple" />
<circle cx="149.47" cy="369.81" r="2" fill="purple" />
<circle cx="129.58" cy="351.05" r="2" fill="purple" />
<circle cx="113.17" cy="329.00" r="2" fill="gold" />
<circle cx="100.78" cy="304.31" r="2" fill="purple" />
<circle cx="92.82" cy="277.71" r="2" fill="purple" />
<circle cx="89.60" cy="250.00" r="2" fill="purple" />
<circle cx="91.25" cy="222.01" r="2" fill="purple" />
</svg>
