<?xml version="1.0" encoding="UTF-8" standalone="no"?>
<svg xmlns="http://www.w3.org/2000/svg" width="500" height="500" viewBox="0 0 500 500">
<line x1="250" y1="250" x2="450.00" y2="250.00" stroke="black" stroke-opacity="0.25" stroke-width="1"/>
<line x1="250" y1="250" x2="423.21" y2="350.00" stroke="black" stroke-opacity="0.25" stroke-width="1"/>
<line x1="250" y1="250" x2="350.00" y2="423.21" stroke="black" stroke-opacity="0.25" stroke-width="1"/>
<line x1="250" y1="250" x2="250.00" y2="450.00" stroke="black" stroke-opacity="0.25" stroke-width="1"/>
<line x1="250" y1="250" x2="150.00" y2="423.21" stroke="black" stroke-opacity="0.25" stroke-width="1"/>
<line x1="250" y1="250" x2="76.79" y2="350.00" stroke="black" stroke-opacity="0.25" stroke-width="1"/>
<line x1="250" y1="250" x2="50.00" y2="250.00" stroke="black" stroke-opacity="0.25" stroke-width="1"/>
<line x1="250" y1="250" x2="76.79" y2="150.00" stroke="black" stroke-opacity="0.25" stroke-width="1"/>
<line x1="250" y1="250" x2="150.00" y2="76.79" stroke="black" stroke-opacity="0.25" stroke-width="1"/>
<line x1="250" y1="250" x2="250.00" y2="50.00" stroke="black" stroke-opacity="0.25" stroke-width="1"/>
<line x1="250" y1="250" x2="350.00" y2="76.79" stroke="black" stroke-opacity="0.25" stroke-width="1"/>
<line x1="250" y1="250" x2="423.21" y2="150.00" stroke="black" stroke-opacity="0.25" stroke-width="1"/>
<line x1="250" y1="250" x2="402.65" y2="276.92" stroke="black" stroke-opacity="0.40" stroke-width="1"/>
<line x1="250" y1="250" x2="368.74" y2="349.63" stroke="black" stroke-opacity="0.40" stroke-width="1"/>
<line x1="250" y1="250" x2="303.01" y2="395.65" stroke="black" stroke-opacity="0.40" stroke-width="1"/>
<line x1="250" y1="250" x2="223.08" y2="402.65" stroke="black" stroke-opacity="0.40" stroke-width="1"/>
<line x1="250" y1="250" x2="150.37" y2="368.74" stroke="black" stroke-opacity="0.40" stroke-width="1"/>
<line x1="250" y1="250" x2="104.35" y2="303.01" stroke="black" stroke-opacity="0.40" stroke-width="1"/>
<line x1="250" y1="250" x2="97.35" y2="223.08" stroke="black" stroke-opacity="0.40" stroke-width="1"/>
<line x1="250" y1="250" x2="131.26" y2="150.37" stroke="black" stroke-opacity="0.40" stroke-width="1"/>
<line x1="250" y1="250" x2="196.99" y2="104.35" stroke="black" stroke-opacity="0.40" stroke-width="1"/>
<line x1="250" y1="250" x2="276.92" y2="97.35" stroke="black" stroke-opacity="0.40" stroke-width="1"/>
<line x1="250" y1="250" x2="349.63" y2="131.26" stroke="black" stroke-opacity="0.40" stroke-width="1"/>
<line x1="250" y1="250" x2="395.65" y2="196.99" stroke="black" stroke-opacity="0.40" stroke-width="1"/>
<line x1="250" y1="250" x2="353.37" y2="287.62" stroke="black" stroke-opacity="0.55" stroke-width="1"/>
<line x1="250" y1="250" x2="320.71" y2="334.26" stroke="black" stroke-opacity="0.55" stroke-width="1"/>
<line x1="250" y1="250" x2="269.10" y2="358.33" stroke="black" stroke-opacity="0.55" stroke-width="1"/>
<line x1="250" y1="250" x2="212.38" y2="353.37" stroke="black" stroke-opacity="0.55" stroke-width="1"/>
<line x1="250" y1="250" x2="165.74" y2="320.71" stroke="black" stroke-opacity="0.55" stroke-width="1"/>
<line x1="250" y1="250" x2="141.67" y2="269.10" stroke="black" stroke-opacity="0.55" stroke-width="1"/>
<line x1="250" y1="250" x2="146.63" y2="212.38" stroke="black" stroke-opacity="0.55" stroke-width="1"/>
<line x1="250" y1="250" x2="179.29" y2="165.74" stroke="black" stroke-opacity="0.55" stroke-width="1"/>
<line x1="250" y1="250" x2="230.90" y2="141.67" stroke="black" stroke-opacity="0.55" stroke-width="1"/>
<line x1="250" y1="250" x2="287.62" y2="146.63" stroke="black" stroke-opacity="0.55" stroke-width="1"/>
<line x1="250" y1="250" x2="334.26" y2="179.29" stroke="black" stroke-opacity="0.55" stroke-width="1"/>
<line x1="250" y1="250" x2="358.33" y2="230.90" stroke="black" stroke-opacity="0.55" stroke-width="1"/>
<line x1="250" y1="250" x2="306.29" y2="282.50" stroke="black" stroke-opacity="0.70" stroke-width="1"/>
<line x1="250" y1="250" x2="282.50" y2="306.29" stroke="black" stroke-opacity="0.70" stroke-width="1"/>
<line x1="250" y1="250" x2="250.00" y2="315.00" stroke="black" stroke-opacity="0.70" stroke-width="1"/>
<line x1="250" y1="250" x2="217.50" y2="306.29" stroke="black" stroke-opacity="0.70" stroke-width="1"/>
<line x1="250" y1="250" x2="193.71" y2="282.50" stroke="black" stroke-opacity="0.70" stroke-width="1"/>
<line x1="250" y1="250" x2="185.00" y2="250.00" stroke="black" stroke-opacity="0.70" stroke-width="1"/>
<line x1="250" y1="250" x2="193.71" y2="217.50" stroke="black" stroke-opacity="0.70" stroke-width="1"/>
<line x1="250" y1="250" x2="217.50" y2="193.71" stroke="black" stroke-opacity="0.70" stroke-width="1"/>
<line x1="250" y1="250" x2="250.00" y2="185.00" stroke="black" stroke-opacity="0.70" stroke-width="1"/>
<line x1="250" y1="250" x2="282.50" y2="193.71" stroke="black" stroke-opacity="0.70" stroke-width="1"/>
<line x1="250" y1="250" x2="306.29" y2="217.50" stroke="black" stroke-opacity="0.70" stroke-width="1"/>
<line x1="250" y1="250" x2="315.00" y2="250.00" stroke="black" stroke-opacity="0.70" stroke-width="1"/>
</svg>
