<?xml version="1.0" encoding="UTF-8" standalone="no"?>
<svg xmlns="http://www.w3.org/2000/svg" width="500" height="500" viewBox="0 0 500 500">
<circle cx="250" cy="250" r="200" fill="none" stroke="black" stroke-width="2"/>
<line x1="250" y1="250" x2="450.00" y2="250.00" stroke="black" stroke-width="1"/>
<line x1="250" y1="250" x2="446.96" y2="284.73" stroke="gray" stroke-width="1"/>
<line x1="250" y1="250" x2="437.94" y2="318.40" stroke="black" stroke-width="1"/>
<line x1="250" y1="250" x2="423.21" y2="350.00" stroke="gray" stroke-width="1"/>
<line x1="250" y1="250" x2="403.21" y2="378.56" stroke="black" stroke-width="1"/>
<line x1="250" y1="250" x2="378.56" y2="403.21" stroke="gray" stroke-width="1"/>
<line x1="250" y1="250" x2="350.00" y2="423.21" stroke="black" stroke-width="1"/>
<line x1="250" y1="250" x2="318.40" y2="437.94" stroke="gray" stroke-width="1"/>
<line x1="250" y1="250" x2="284.73" y2="446.96" stroke="black" stroke-width="1"/>
<line x1="250" y1="250" x2="250.00" y2="450.00" stroke="gray" stroke-width="1"/>
<line x1="250" y1="250" x2="215.27" y2="446.96" stroke="black" stroke-width="1"/>
<line x1="250" y1="250" x2="181.60" y2="437.94" stroke="gray" stroke-width="1"/>
<line x1="250" y1="250" x2="150.00" y2="423.21" stroke="black" stroke-width="1"/>
<line x1="250" y1="250" x2="121.44" y2="403.21" stroke="gray" stroke-width="1"/>
<line x1="250" y1="250" x2="96.79" y2="378.56" stroke="black" stroke-width="1"/>
<line x1="250" y1="250" x2="76.79" y2="350.00" stroke="gray" stroke-width="1"/>
<line x1="250" y1="250" x2="62.06" y2="318.40" stroke="black" stroke-width="1"/>
<line x1="250" y1="250" x2="53.04" y2="284.73" stroke="gray" stroke-width="1"/>
<line x1="250" y1="250" x2="50.00" y2="250.00" stroke="black" stroke-width="1"/>
<line x1="250" y1="250" x2="53.04" y2="215.27" stroke="gray" stroke-width="1"/>
<line x1="250" y1="250" x2="62.06" y2="181.60" stroke="black" stroke-width="1"/>
<line x1="250" y1="250" x2="76.79" y2="150.00" stroke="gray" stroke-width="1"/>
<line x1="250" y1="250" x2="96.79" y2="121.44" stroke="black" stroke-width="1"/>
<line x1="250" y1="250" x2="121.44" y2="96.79" stroke="gray" stroke-width="1"/>
<line x1="250" y1="250" x2="150.00" y2="76.79" stroke="black" stroke-width="1"/>
<line x1="250" y1="250" x2="181.60" y2="62.06" stroke="gray" stroke-width="1"/>
<line x1="250" y1="250" x2="215.27" y2="53.04" stroke="black" stroke-width="1"/>
<line x1="250" y1="250" x2="250.00" y2="50.00" stroke="gray" stroke-width="1"/>
<line x1="250" y1="250" x2="284.73" y2="53.04" stroke="black" stroke-width="1"/>
<line x1="250" y1="250" x2="318.40" y2="62.06" stroke="gray" stroke-width="1"/>
<line x1="250" y1="250" x2="350.00" y2="76.79" stroke="black" stroke-width="1"/>
<line x1="250" y1="250" x2="378.56" y2="96.79" stroke="gray" stroke-width="1"/>
<line x1="250" y1="250" x2="403.21" y2="121.44" stroke="black" stroke-width="1"/>
<line x1="250" y1="250" x2="423.21" y2="150.00" stroke="gray" stroke-width="1"/>
<line x1="250" y1="250" x2="437.94" y2="181.60" stroke="black" stroke-width="1"/>
<line x1="250" y1="250" x2="446.96" y2="215.27" stroke="gray" stroke-width="1"/>
</svg>
