<?xml version="1.0" encoding="UTF-8" standalone="no"?>
<svg xmlns="http://www.w3.org/2000/svg" width="420" height="160" viewBox="0 0 420 160">
<rect x="0" y="0" width="20" height="20" fill="navy" />
<rect x="20" y="0" width="20" height="20" fill="gold" />
<rect x="40" y="0" width="20" height="20" fill="navy" />
<rect x="60" y="0" width="20" height="20" fill="gold" />
<rect x="80" y="0" width="20" height="20" fill="navy" />
<rect x="100" y="0" width="20" height="20" fill="gold" />
<rect x="120" y="0" width="20" height="20" fill="navy" />
<rect x="140" y="0" width="20" height="20" fill="gold" />
<rect x="160" y="0" width="20" height="20" fill="navy" />
<rect x="180" y="0" width="20" height="20" fill="gold" />
<rect x="200" y="0" width="20" height="20" fill="navy" />
<rect x="220" y="0" width="20" height="20" fill="gold" />
<rect x="240" y="0" width="20" height="20" fill="navy" />
<rect x="260" y="0" width="20" height="20" fill="gold" />
<rect x="280" y="0" width="20" height="20" fill="navy" />
<rect x="300" y="0" width="20" height="20" fill="gold" />
<rect x="320" y="0" width="20" height="20" fill="navy" />
<rect x="340" y="0" width="20" height="20" fill="gold" />
<rect x="360" y="0" width="20" height="20" fill="navy" />
<rect x="380" y="0" width="20" height="20" fill="gold" />
<rect x="400" y="0" width="20" height="20" fill="navy" />
<rect x="0" y="20" width="20" height="20" fill="gold" />
<rect x="20" y="20" width="20" height="20" fill="navy" />
<rect x="40" y="20" width="20" height="20" fill="gold" />
<rect x="60" y="20" width="20" height="20" fill="navy" />
<rect x="80" y="20" width="20" height="20" fill="gold" />
<rect x="100" y="20" width="20" height="20" fill="navy" />
<rect x="120" y="20" width="20" height="20" fill="gold" />
<rect x="140" y="20" width="20" height="20" fill="navy" />
<rect x="160" y="20" width="20" height="20" fill="gold" />
<rect x="180" y="20" width="20" height="20" fill="navy" />
<rect x="200" y="20" width="20" height="20" fill="gold" />
<rect x="220" y="20" width="20" height="20" fill="navy" />
<rect x="240" y="20" width="20" height="20" fill="gold" />
<rect x="260" y="20" width="20" height="20" fill="navy" />
<rect x="280" y="20" width="20" height="20" fill="gold" />
<rect x="300" y="20" width="20" height="20" fill="navy" />
<rect x="320" y="20" width="20" height="20" fill="gold" />
<rect x="340" y="20" width="20" height="20" fill="navy" />
<rect x="360" y="20" width="20" height="20" fill="gold" />
<rect x="380" y="20" width="20" height="20" fill="navy" />
<rect x="400" y="20" width="20" height="20" fill="gold" />
<rect x="0" y="40" width="20" height="20" fill="navy" />
<rect x="20" y="40" width="20" height="20" fill="gold" />
<rect x="40" y="40" width="20" height="20" fill="navy" />
<rect x="60" y="40" width="20" height="20" fill="gold" />
<rect x="80" y="40" width="20" height="20" fill="navy" />
<rect x="100" y="40" width="20" height="20" fill="gold" />
<rect x="120" y="40" width="20" height="20" fill="navy" />
<rect x="140" y="40" width="20" height="20" fill="gold" />
<rect x="160" y="40" width="20" height="20" fill="navy" />
<rect x="180" y="40" width="20" height="20" fill="gold" />
<rect x="200" y="40" width="20" height="20" fill="navy" />
<rect x="220" y="40" width="20" height="20" fill="gold" />
<rect x="240" y="40" width="20" height="20" fill="navy" />
<rect x="260" y="40" width="20" height="20" fill="gold" />
<rect x="280" y="40" width="20" height="20" fill="navy" />
<rect x="300" y="40" width="20" height="20" fill="gold" />
<rect x="320" y="40" width="20" height="20" fill="navy" />
<rect x="340" y="40" width="20" height="20" fill="gold" />
<rect x="360" y="40" width="20" height="20" fill="navy" />
<rect x="380" y="40" width="20" height="20" fill="gold" />
<rect x="400" y="40" width="20" height="20" fill="navy" />
<rect x="0" y="60" width="20" height="20" fill="gold" />
<rect x="20" y="60" width="20" height="20" fill="navy" />
<rect x="40" y="60" width="20" height="20" fill="gold" />
<rect x="60" y="60" width="20" height="20" fill="navy" />
<rect x="80" y="60" width="20" height="20" fill="gold" />
<rect x="100" y="60" width="20" height="20" fill="navy" />
<rect x="120" y="60" width="20" height="20" fill="gold" />
<rect x="140" y="60" width="20" height="20" fill="navy" />
<rect x="160" y="60" width="20" height="20" fill="gold" />
<rect x="180" y="60" width="20" height="20" fill="navy" />
<rect x="200" y="60" width="20" height="20" fill="gold" />
<rect x="220" y="60" width="20" height="20" fill="navy" />
<rect x="240" y="60" width="20" height="20" fill="gold" />
<rect x="260" y="60" width="20" height="20" fill="navy" />
<rect x="280" y="60" width="20" height="20" fill="gold" />
<rect x="300" y="60" width="20" height="20" fill="navy" />
<rect x="320" y="60" width="20" height="20" fill="gold" />
<rect x="340" y="60" width="20" height="20" fill="navy" />
<rect x="360" y="60" width="20" height="20" fill="gold" />
<rect x="380" y="60" width="20" height="20" fill="navy" />
<rect x="400" y="60" width="20" height="20" fill="gold" />
<rect x="0" y="80" width="20" height="20" fill="navy" />
<rect x="20" y="80" width="20" height="20" fill="gold" />
<rect x="40" y="80" width="20" height="20" fill="navy" />
<rect x="60" y="80" width="20" height="20" fill="gold" />
<rect x="80" y="80" width="20" height="20" fill="navy" />
<rect x="100" y="80" width="20" height="20" fill="gold" />
<rect x="120" y="80" width="20" height="20" fill="navy" />
<rect x="140" y="80" width="20" height="20" fill="gold" />
<rect x="160" y="80" width="20" height="20" fill="navy" />
<rect x="180" y="80" width="20" height="20" fill="gold" />
<rect x="200" y="80" width="20" height="20" fill="navy" />
<rect x="220" y="80" width="20" height="20" fill="gold" />
<rect x="240" y="80" width="20" height="20" fill="navy" />
<rect x="260" y="80" width="20" height="20" fill="gold" />
<rect x="280" y="80" width="20" height="20" fill="navy" />
<rect x="300" y="80" width="20" height="20" fill="gold" />
<rect x="320" y="80" width="20" height="20" fill="navy" />
<rect x="340" y="80" width="20" height="20" fill="gold" />
<rect x="360" y="80" width="20" height="20" fill="navy" />
<rect x="380" y="80" width="20" height="20" fill="gold" />
<rect x="400" y="80" width="20" height="20" fill="navy" />
<rect x="0" y="100" width="20" height="20" fill="gold" />
<rect x="20" y="100" width="20" height="20" fill="navy" />
<rect x="40" y="100" width="20" height="20" fill="gold" />
<rect x="60" y="100" width="20" height="20" fill="navy" />
<rect x="80" y="100" width="20" height="20" fill="gold" />
<rect x="100" y="100" width="20" height="20" fill="navy" />
<rect x="120" y="100" width="20" height="20" fill="gold" />
<rect x="140" y="100" width="20" height="20" fill="navy" />
<rect x="160" y="100" width="20" height="20" fill="gold" />
<rect x="180" y="100" width="20" height="20" fill="navy" />
<rect x="200" y="100" width="20" height="20" fill="gold" />
<rect x="220" y="100" width="20" height="20" fill="navy" />
<rect x="240" y="100" width="20" height="20" fill="gold" />
<rect x="260" y="100" width="20" height="20" fill="navy" />
<rect x="280" y="100" width="20" height="20" fill="gold" />
<rect x="300" y="100" width="20" height="20" fill="navy" />
<rect x="320" y="100" width="20" height="20" fill="gold" />
<rect x="340" y="100" width="20" height="20" fill="navy" />
<rect x="360" y="100" width="20" height="20" fill="gold" />
<rect x="380" y="100" width="20" height="20" fill="navy" />
<rect x="400" y="100" width="20" height="20" fill="gold" />
</svg>
